<?xml version="1.0" encoding="UTF-8" standalone="no"?>
<!DOCTYPE svg PUBLIC "-//W3C//DTD SVG 1.1//EN" "http://www.w3.org/Graphics/SVG/1.1/DTD/svg11.dtd">
<svg width="100%" height="100%" viewBox="0 0 500 200" version="1.1" xmlns="http://www.w3.org/2000/svg" xmlns:xlink="http://www.w3.org/1999/xlink" xml:space="preserve" xmlns:serif="http://www.serif.com/" style="fill-rule:evenodd;clip-rule:evenodd;stroke-linejoin:round;stroke-miterlimit:2;">
    <g transform="matrix(0.05666,0,0,0.05666,-151.527,-301.527)">
        <path d="M4179.9,7100.38C4179.9,7306.92 3997.19,7395.62 3790.65,7395.62C3601.32,7395.62 3455.69,7337.37 3386.85,7167.9L3532.48,7092.43C3573.53,7194.38 3680.76,7239.4 3793.3,7239.4C3903.19,7239.4 4006.46,7201 4006.46,7100.38C4006.46,7013 3915.1,6977.25 3791.98,6964.02C3602.65,6941.51 3427.89,6891.2 3427.89,6683.33C3427.89,6492.69 3615.89,6414.58 3786.68,6413.25C3930.99,6413.25 4080.6,6454.29 4150.76,6597.28L4011.75,6668.77C3979.98,6615.81 3892.6,6565.5 3791.98,6565.5C3662.23,6565.5 3600,6619.79 3600,6688.63C3600,6769.39 3695.33,6791.9 3806.54,6805.14C3999.84,6828.97 4179.9,6879.28 4179.9,7100.38ZM7540.73,6638.76L7368.62,7034.18L7712.85,7034.18L7540.73,6638.76ZM4591.42,7371.79L4591.42,6443.7L5285.17,6443.7L5285.17,6613.16L4764.86,6613.16L4764.86,6827.65L5266.64,6827.65L5266.64,6990.49L4764.86,6990.49L4764.86,7199.68L5285.17,7199.68L5285.17,7371.79L4591.42,7371.79ZM5700.67,7830.75L5700.67,6446.35L5901.9,6446.35L6191.85,6844.2L6481.79,6446.35L6681.71,6446.35L6681.71,7371.79L6506.95,7371.79L6506.95,6700.32L6205.09,7102.15L6170.66,7102.15L5875.42,6699L5875.42,8195.12L6275.22,7830.75L10772.2,7830.75C10993.1,7830.75 11173.8,7650.01 11173.8,7429.11L11173.8,6379.75C11173.8,6158.85 10993.1,5978.11 10772.2,5978.11L3401.01,5978.11C3180.11,5978.11 2999.38,6158.85 2999.38,6379.75L2999.38,7429.11C2999.38,7650.01 3180.11,7830.75 3401.01,7830.75L5700.67,7830.75ZM8051.78,7371.79L7861.13,7371.79L7783.02,7197.03L7298.45,7197.03L7219.01,7371.79L7029.68,7371.79L7445.41,6443.7L7636.05,6443.7L8051.78,7371.79ZM8672.49,7371.79L8497.73,7371.79L8497.73,6602.57L8203.81,6602.57L8203.81,6443.7L8966.4,6443.7L8966.4,6602.57L8672.49,6602.57L8672.49,7371.79ZM9352.77,7371.79L9352.77,6443.7L9526.2,6443.7L9526.2,7371.79L9352.77,7371.79ZM10434.2,7392.97C10090,7392.97 9944.34,7155.99 9943.02,6915.03C9941.7,6672.74 10099.2,6426.49 10434.2,6426.49C10560,6426.49 10679.1,6474.15 10774.5,6568.15L10658,6680.68C10597.1,6621.11 10515,6593.31 10434.2,6593.31C10210.5,6593.31 10113.8,6760.12 10115.1,6915.03C10116.5,7068.61 10205.2,7228.8 10434.2,7228.8C10515,7228.8 10606.3,7195.7 10667.2,7134.81L10786.4,7255.28C10691.1,7349.28 10567.9,7392.97 10434.2,7392.97Z" style="fill:url(#_Linear1);"/>
    </g>
    <defs>
        <linearGradient id="_Linear1" x1="0" y1="0" x2="1" y2="0" gradientUnits="userSpaceOnUse" gradientTransform="matrix(3636.01,-5666.86,-5666.86,-3636.01,6120.21,9878.98)"><stop offset="0" style="stop-color:rgb(0,177,225);stop-opacity:1"/><stop offset="1" style="stop-color:rgb(10,204,200);stop-opacity:1"/></linearGradient>
    </defs>
</svg>
